<svg xmlns="http://www.w3.org/2000/svg" width="32" height="32" fill="none"><g clip-path="url(#a)"><path fill="#16B364" d="M10.062 0h.592l.002 10.554c0 .032.013.063.036.086a.126.126 0 0 0 .087.037c2.493.016 4.89.915 6.744 2.494 2.173 1.852 3.43 4.225 3.77 7.119.002.016.01.023.025.022h.002c.021-.001.032-.012.032-.034-.016-6.758-.02-13.517-.01-20.278H22c3.82.364 6.682 2.143 8.582 5.338.832 1.398 1.305 3 1.418 4.804v11.853c-.18 2.27-.936 4.245-2.272 5.925-1.954 2.459-4.55 3.819-7.79 4.08h-.594V21.378a.04.04 0 0 0-.011-.029.038.038 0 0 0-.027-.011l-10.612.001a.038.038 0 0 0-.014.003.038.038 0 0 0-.02.02.038.038 0 0 0-.002.014L10.659 32h-.651c-2.126-.164-3.995-.842-5.608-2.034C1.722 27.986.255 25.284 0 21.86V10.003C.187 7.667.98 5.646 2.38 3.94 4.326 1.567 6.887.254 10.061 0z"/></g><defs><clipPath id="a"><path fill="#fff" d="M0 0h32v32H0z"/></clipPath></defs></svg>